<svg width="100" height="24" viewBox="0 0 100 24" fill="none" xmlns="http://www.w3.org/2000/svg">
<path d="M8.78689 20.1484H0V22.8916H8.78689V20.1484Z" fill="black"/>
<path d="M14.5353 7.0108C13.5627 6.47528 12.4479 6.20206 11.202 6.20206C10.1528 6.20206 9.18014 6.38785 8.28396 6.77037C7.40965 7.15288 6.68834 7.6884 6.1091 8.37692V0.835938H2.71019V14.7376H0.0107422V17.4807H8.79763V14.7376H6.1091V13.7103C6.1091 12.2348 6.48069 11.1201 7.21293 10.3441C7.96703 9.54632 8.98342 9.15288 10.2512 9.15288C11.5189 9.15288 12.5244 9.54632 13.2566 10.3441C13.9889 11.1201 14.3605 12.2458 14.3605 13.7103V22.8906H17.7266V13.2075C17.7266 11.7212 17.4424 10.4425 16.8632 9.39331C16.3058 8.34413 15.5299 7.54632 14.5353 7.0108Z" fill="black"/>
<path d="M33.6502 17.6567C33.1912 18.4873 32.5901 19.1321 31.836 19.5583C31.0819 19.9955 30.2622 20.2141 29.3879 20.2141C28.5355 20.2141 27.7158 19.9955 26.9398 19.5583C26.1857 19.0993 25.5737 18.4436 25.0928 17.5911C24.6338 16.7386 24.4043 15.7441 24.4043 14.6075C24.4043 13.4709 24.6338 12.4982 25.0928 11.6895C25.5737 10.8589 26.1857 10.225 26.9398 9.80969C27.6939 9.37253 28.5136 9.15395 29.3879 9.15395C30.2622 9.15395 31.071 9.37253 31.836 9.80969C32.5901 10.2468 33.2021 10.8807 33.6502 11.7113C34.1311 12.5419 34.3606 13.5255 34.3606 14.6621C34.3606 15.8097 34.1202 16.7933 33.6502 17.6567ZM34.3606 8.85886C33.7814 8.10477 33.0054 7.48181 32.0327 6.97908C31.0819 6.46542 29.9562 6.20312 28.6666 6.20312C27.2349 6.20312 25.9234 6.56378 24.7322 7.27417C23.5628 7.97362 22.6229 8.95723 21.9344 10.225C21.2568 11.4927 20.918 12.9572 20.918 14.6075C20.918 16.2578 21.2568 17.7332 21.9344 19.0447C22.6338 20.3343 23.5628 21.3507 24.7322 22.0829C25.9016 22.7933 27.1912 23.1539 28.601 23.1539C29.8688 23.1539 31.0054 22.8917 31.9999 22.378C32.9945 21.8643 33.7814 21.2195 34.3497 20.4436V22.8916H37.7814V6.47635H34.3497V8.85886H34.3606Z" fill="black"/>
<path d="M46.2072 2.39844H42.7865V6.48587H40.8521V9.26183H42.7865V18.3547C42.7865 19.9613 43.1909 21.1307 44.0105 21.8411C44.8302 22.5514 45.9996 22.9121 47.5297 22.9121H50.2072V20.0815H48.1198C47.4204 20.0815 46.9286 19.9504 46.6335 19.699C46.3602 19.4258 46.2182 18.9777 46.2182 18.3547V9.26183H50.2072V6.48587H46.2182V2.39844H46.2072Z" fill="black"/>
<path d="M65.1694 7.0108C64.1967 6.47528 63.082 6.20206 61.836 6.20206C60.7869 6.20206 59.8142 6.38785 58.918 6.77037C58.0437 7.15288 57.3224 7.6884 56.7431 8.37692V0.835938H53.3442V22.8906H56.7431V13.7103C56.7431 12.2348 57.1147 11.1201 57.847 10.3441C58.6011 9.54632 59.6175 9.15288 60.8852 9.15288C62.153 9.15288 63.1584 9.54632 63.8907 10.3441C64.6229 11.1201 64.9945 12.2458 64.9945 13.7103V22.8906H68.3606V13.2075C68.3606 11.7212 68.0765 10.4425 67.4972 9.39331C66.9289 8.34413 66.153 7.54632 65.1694 7.0108Z" fill="black"/>
<path d="M84.1309 17.7102C83.6501 18.5408 83.0271 19.1746 82.2511 19.5899C81.497 20.0052 80.6774 20.2129 79.803 20.2129C78.4369 20.2129 77.2894 19.732 76.3714 18.7812C75.4752 17.8085 75.0271 16.4424 75.0271 14.6719C75.0271 13.4807 75.2457 12.4752 75.6828 11.6664C76.12 10.8358 76.7102 10.202 77.4424 9.78666C78.1965 9.37136 79.0162 9.16371 79.8905 9.16371C80.7648 9.16371 81.5735 9.37136 82.3386 9.78666C83.0927 10.202 83.7047 10.8249 84.1528 11.6664C84.6118 12.4861 84.8413 13.4807 84.8413 14.6719C84.8413 15.8632 84.6009 16.8796 84.1309 17.7102ZM84.2184 7.25114C82.9506 6.55169 81.5298 6.21289 79.9561 6.21289C78.3823 6.21289 76.9615 6.56262 75.6938 7.25114C74.426 7.9506 73.4205 8.9342 72.6883 10.2347C71.9561 11.5244 71.5845 13.0107 71.5845 14.6719C71.5845 16.3659 71.9451 17.8522 72.6555 19.1419C73.3659 20.4096 74.3495 21.4041 75.6063 22.1255C76.8632 22.8249 78.2621 23.1637 79.803 23.1637C81.3768 23.1637 82.7976 22.814 84.0981 22.1255C85.4096 21.4151 86.4369 20.4096 87.202 19.12C87.9561 17.8304 88.3386 16.344 88.3386 14.6828C88.3386 13.0107 87.967 11.5353 87.2347 10.2457C86.4916 8.94513 85.4861 7.9506 84.2184 7.25114Z" fill="black"/>
<path d="M97.0492 6.92327C96.2296 7.38229 95.5738 8.0271 95.082 8.8577V6.47519H91.6831V22.8905H95.082V14.2457C95.082 12.5735 95.4208 11.4041 96.0984 10.7266C96.7979 10.049 97.8033 9.71016 99.1367 9.71016H100V6.21289C98.8634 6.21289 97.8798 6.45333 97.0492 6.92327Z" fill="black"/>
</svg>
