<svg width="121" height="28" viewBox="0 0 121 28" fill="none" xmlns="http://www.w3.org/2000/svg">
<path d="M11.0443 23.7773H0.5V27.0691H11.0443V23.7773Z" fill="white"/>
<path d="M17.9422 8.01335C16.775 7.37073 15.4373 7.04286 13.9422 7.04286C12.6832 7.04286 11.516 7.26581 10.4406 7.72483C9.39138 8.18385 8.52581 8.82647 7.83073 9.6527V0.603516H3.75204V17.2855H0.512695V20.5773H11.057V17.2855H7.83073V16.0527C7.83073 14.2822 8.27663 12.9445 9.15532 12.0134C10.0602 11.056 11.2799 10.5838 12.8012 10.5838C14.3225 10.5838 15.5291 11.056 16.4078 12.0134C17.2865 12.9445 17.7324 14.2953 17.7324 16.0527V27.0691H21.7717V15.4494C21.7717 13.6658 21.4307 12.1314 20.7356 10.8724C20.0668 9.61335 19.1356 8.65598 17.9422 8.01335Z" fill="white"/>
<path d="M40.8798 20.7872C40.3289 21.784 39.6076 22.5577 38.7027 23.0692C37.7978 23.5938 36.8142 23.8561 35.765 23.8561C34.7421 23.8561 33.7584 23.5938 32.8273 23.0692C31.9224 22.5184 31.188 21.7315 30.6109 20.7085C30.0601 19.6856 29.7847 18.4921 29.7847 17.1282C29.7847 15.7643 30.0601 14.5971 30.6109 13.6266C31.188 12.6299 31.9224 11.8692 32.8273 11.3708C33.7322 10.8463 34.7158 10.584 35.765 10.584C36.8142 10.584 37.7847 10.8463 38.7027 11.3708C39.6076 11.8954 40.3421 12.6561 40.8798 13.6528C41.4568 14.6495 41.7322 15.8299 41.7322 17.1938C41.7322 18.5708 41.4437 19.7512 40.8798 20.7872ZM41.7322 10.2299C41.0371 9.32494 40.106 8.5774 38.9388 7.97412C37.7978 7.35772 36.447 7.04297 34.8994 7.04297C33.1814 7.04297 31.6076 7.47576 30.1781 8.32822C28.7748 9.16756 27.647 10.3479 26.8207 11.8692C26.0076 13.3905 25.6011 15.1479 25.6011 17.1282C25.6011 19.1085 26.0076 20.879 26.8207 22.4528C27.6601 24.0003 28.7748 25.22 30.1781 26.0987C31.5814 26.9512 33.1289 27.384 34.8207 27.384C36.3421 27.384 37.706 27.0692 38.8994 26.4528C40.0929 25.8364 41.0371 25.0626 41.7191 24.1315V27.0692H45.8371V7.37084H41.7191V10.2299H41.7322Z" fill="white"/>
<path d="M55.9489 2.47852H51.844V7.38343H49.5227V10.7146H51.844V21.6261C51.844 23.5539 52.3293 24.9572 53.3129 25.8097C54.2965 26.6621 55.6998 27.0949 57.5358 27.0949H60.7489V23.6982H58.244C57.4047 23.6982 56.8145 23.5408 56.4604 23.2392C56.1325 22.9113 55.9621 22.3736 55.9621 21.6261V10.7146H60.7489V7.38343H55.9621V2.47852H55.9489Z" fill="white"/>
<path d="M78.7026 8.01335C77.5354 7.37073 76.1977 7.04286 74.7026 7.04286C73.4436 7.04286 72.2764 7.26581 71.201 7.72483C70.1518 8.18385 69.2862 8.82647 68.5911 9.6527V0.603516H64.5125V27.0691H68.5911V16.0527C68.5911 14.2822 69.0371 12.9445 69.9157 12.0134C70.8207 11.056 72.0403 10.5838 73.5616 10.5838C75.0829 10.5838 76.2895 11.056 77.1682 12.0134C78.0469 12.9445 78.4928 14.2953 78.4928 16.0527V27.0691H82.5321V15.4494C82.5321 13.6658 82.1911 12.1314 81.4961 10.8724C80.8141 9.61335 79.883 8.65598 78.7026 8.01335Z" fill="white"/>
<path d="M101.457 20.8534C100.88 21.8501 100.132 22.6107 99.2009 23.1091C98.296 23.6075 97.3123 23.8566 96.2632 23.8566C94.6238 23.8566 93.2468 23.2796 92.1451 22.1386C91.0697 20.9714 90.532 19.3321 90.532 17.2075C90.532 15.778 90.7943 14.5714 91.3189 13.6009C91.8435 12.6042 92.5517 11.8435 93.4304 11.3452C94.3353 10.8468 95.3189 10.5976 96.3681 10.5976C97.4173 10.5976 98.3878 10.8468 99.3058 11.3452C100.211 11.8435 100.945 12.5911 101.483 13.6009C102.034 14.5845 102.309 15.778 102.309 17.2075C102.309 18.637 102.021 19.8566 101.457 20.8534ZM101.562 8.30254C100.04 7.4632 98.3353 7.05664 96.4468 7.05664C94.5583 7.05664 92.8533 7.47631 91.332 8.30254C89.8107 9.14189 88.6042 10.3222 87.7255 11.8829C86.8468 13.4304 86.4009 15.214 86.4009 17.2075C86.4009 19.2402 86.8337 21.0239 87.6861 22.5714C88.5386 24.0927 89.7189 25.2861 91.2271 26.1517C92.7353 26.9911 94.414 27.3976 96.2632 27.3976C98.1517 27.3976 99.8566 26.9779 101.417 26.1517C102.991 25.2993 104.224 24.0927 105.142 22.5452C106.047 20.9976 106.506 19.214 106.506 17.2206C106.506 15.214 106.06 13.4435 105.181 11.896C104.289 10.3353 103.083 9.14189 101.562 8.30254Z" fill="white"/>
<path d="M116.959 7.9091C115.975 8.45992 115.188 9.23369 114.598 10.2304V7.37139H110.52V27.0698H114.598V16.696C114.598 14.6894 115.005 13.2861 115.818 12.473C116.657 11.6599 117.864 11.2534 119.464 11.2534H120.5V7.05664C119.136 7.05664 117.956 7.34517 116.959 7.9091Z" fill="white"/>
</svg>
