<svg width="160" height="42" viewBox="0 0 160 42" fill="none" xmlns="http://www.w3.org/2000/svg">
<path fill-rule="evenodd" clip-rule="evenodd" d="M91.5262 17.1995C93.4045 13.9419 96.3643 12.2846 100.462 12.2846C103.593 12.2846 106.211 13.3133 108.204 15.3707C110.253 17.4852 111.277 20.3999 111.277 24.1718V40.7453H105.528V25.0862C105.528 22.5716 104.902 20.6285 103.65 19.314C102.398 17.9996 100.69 17.3138 98.5272 17.3138C96.3643 17.3138 94.6567 17.9996 93.4045 19.314C92.1523 20.6285 91.5262 22.5716 91.5262 25.0862V40.8025H85.7204V0.740234H91.5262V17.1995ZM81.9068 17.4853H75.1334V33.0301C75.1334 34.0588 75.3611 34.8589 75.8734 35.3161C76.3856 35.7733 77.1825 36.0019 78.3778 36.0019H81.9068V40.8597H77.3532C72.0028 40.8597 69.2707 38.2879 69.2707 33.0873V17.4853H66.0263V12.7418H69.3276V6.16954H75.1334V12.7418H81.9068V17.4853ZM37.339 37.1449C34.8346 34.4017 33.5823 30.9155 33.5823 26.6293C33.5823 22.343 34.8346 18.914 37.339 16.2279C39.8435 13.5419 42.974 12.2274 46.7307 12.2274C48.9505 12.2274 50.8858 12.7418 52.5365 13.7133C54.1871 14.742 55.4963 16.0565 56.407 17.6567V12.7418H62.2127V40.8025H56.407V35.5447C55.4393 37.2592 54.1302 38.688 52.4795 39.7167C50.8289 40.7454 48.8936 41.2597 46.6738 41.2597C43.0309 41.2597 39.9004 39.8881 37.339 37.1449ZM53.9025 33.6016C55.5532 31.8871 56.407 29.6011 56.407 26.6864C56.407 23.8289 55.5532 21.4858 53.9025 19.8284C52.2519 18.1139 50.2597 17.2566 47.926 17.2566C45.6492 17.2566 43.657 18.1139 41.9495 19.7712C40.2988 21.4286 39.445 23.7146 39.445 26.5721C39.445 29.4296 40.2988 31.7728 41.9495 33.5444C43.6001 35.3161 45.5923 36.1733 47.926 36.1733C50.2597 36.1733 52.2519 35.3161 53.9025 33.6016ZM118.506 37.2592C121.124 39.9453 124.482 41.2597 128.581 41.2597C132.679 41.2597 136.094 39.8881 138.94 37.202C141.672 34.516 143.095 30.9727 143.095 26.6864C143.095 22.4002 141.729 18.914 138.997 16.2279C136.265 13.5419 132.849 12.2274 128.808 12.2274C124.71 12.2274 121.352 13.5419 118.62 16.2279C115.888 18.914 114.521 22.4002 114.521 26.7436C114.521 31.087 115.888 34.5731 118.506 37.2592ZM137.175 26.7436C137.175 29.7725 136.322 32.1157 134.614 33.8302C132.906 35.4875 130.914 36.3448 128.637 36.402C126.304 36.402 124.369 35.5447 122.832 33.8873C121.295 32.1728 120.498 29.8297 120.498 26.8007C120.498 23.7718 121.295 21.3715 122.889 19.7141C124.482 18.0567 126.418 17.1995 128.751 17.1995C131.085 17.1995 133.077 18.0567 134.728 19.7141C136.378 21.3715 137.175 23.7146 137.175 26.7436ZM151.633 12.7417V17.6566C153.397 14.1133 156.186 12.2845 160 12.2845V18.2853H158.52C156.243 18.2853 154.536 18.8568 153.397 19.9998C152.259 21.1428 151.633 23.143 151.633 26.0006V40.7453H145.827V12.7417H151.633ZM4.78122 35.8875H0V40.8024H4.78122H10.587H14.9698V35.8875H10.587H4.78122ZM19.4664 12.2846C22.5969 12.2846 25.2152 13.3133 27.2643 15.4278C29.3134 17.5424 30.338 20.457 30.338 24.1718V40.7454H24.5891V25.0862C24.5891 22.5716 23.963 20.6285 22.7108 19.314C21.4586 17.9996 19.751 17.3138 17.588 17.3138C15.4251 17.3138 13.7175 17.9996 12.4653 19.314C11.2131 20.6285 10.587 22.5716 10.587 25.0862V26.1149H15.0267V31.0298H10.587H4.78122H0V26.1149H4.78122V0.740234H10.5301V17.1995C12.4084 13.9419 15.3682 12.2846 19.4664 12.2846Z" fill="white"/>
</svg>
