<svg width="160" height="36" viewBox="0 0 160 36" fill="none" xmlns="http://www.w3.org/2000/svg">
<path d="M14.059 31.0361H0V35.4252H14.059V31.0361Z" fill="white"/>
<path d="M23.2569 10.0175C21.7006 9.16065 19.917 8.72349 17.9236 8.72349C16.2449 8.72349 14.6886 9.02076 13.2547 9.63278C11.8558 10.2448 10.7017 11.1016 9.77496 12.2033V0.137695H4.3367V22.3803H0.0175781V26.7694H14.0766V22.3803H9.77496V20.7366C9.77496 18.3759 10.3695 16.5923 11.5411 15.3508C12.7476 14.0743 14.3739 13.4448 16.4023 13.4448C18.4307 13.4448 20.0394 14.0743 21.211 15.3508C22.3826 16.5923 22.9771 18.3934 22.9771 20.7366V35.4251H28.3629V19.9322C28.3629 17.5541 27.9083 15.5082 26.9815 13.8295C26.0897 12.1508 24.8482 10.8743 23.2569 10.0175Z" fill="white"/>
<path d="M53.8406 27.0493C53.1062 28.3783 52.1444 29.41 50.9378 30.0919C49.7313 30.7914 48.4198 31.1411 47.0209 31.1411C45.657 31.1411 44.3455 30.7914 43.104 30.0919C41.8974 29.3575 40.9182 28.3083 40.1488 26.9444C39.4143 25.5805 39.0471 23.9892 39.0471 22.1706C39.0471 20.352 39.4143 18.7958 40.1488 17.5018C40.9182 16.1728 41.8974 15.1586 43.104 14.4941C44.3105 13.7947 45.622 13.4449 47.0209 13.4449C48.4198 13.4449 49.7138 13.7947 50.9378 14.4941C52.1444 15.1936 53.1236 16.2078 53.8406 17.5367C54.61 18.8657 54.9772 20.4395 54.9772 22.2581C54.9772 24.0941 54.5925 25.6679 53.8406 27.0493ZM54.9772 12.9728C54.0504 11.7663 52.8089 10.7695 51.2526 9.96516C49.7313 9.14331 47.9302 8.72363 45.8668 8.72363C43.5761 8.72363 41.4777 9.30069 39.5717 10.4373C37.7007 11.5564 36.1969 13.1302 35.0952 15.1586C34.0111 17.187 33.469 19.5302 33.469 22.1706C33.469 24.8111 34.0111 27.1717 35.0952 29.2701C36.2143 31.3335 37.7007 32.9597 39.5717 34.1313C41.4428 35.2679 43.5062 35.8449 45.7619 35.8449C47.7903 35.8449 49.6089 35.4253 51.2001 34.6034C52.7914 33.7816 54.0504 32.7499 54.9597 31.5083V35.4253H60.4504V9.16079H54.9597V12.9728H54.9772Z" fill="white"/>
<path d="M73.9323 2.63867H68.4591V9.17856H65.364V13.6201H68.4591V28.1687C68.4591 30.7392 69.1061 32.6103 70.4176 33.7469C71.729 34.8835 73.6001 35.4605 76.0482 35.4605H80.3323V30.9316H76.9924C75.8733 30.9316 75.0864 30.7217 74.6143 30.3195C74.1771 29.8824 73.9498 29.1654 73.9498 28.1687V13.6201H80.3323V9.17856H73.9498V2.63867H73.9323Z" fill="white"/>
<path d="M104.271 10.0175C102.715 9.16065 100.931 8.72349 98.9377 8.72349C97.259 8.72349 95.7027 9.02076 94.2689 9.63278C92.87 10.2448 91.7159 11.1016 90.7891 12.2033V0.137695H85.3508V35.4251H90.7891V20.7366C90.7891 18.3759 91.3836 16.5923 92.5552 15.3508C93.7618 14.0743 95.388 13.4448 97.4164 13.4448C99.4448 13.4448 101.054 14.0743 102.225 15.3508C103.397 16.5923 103.991 18.3934 103.991 20.7366V35.4251H109.377V19.9322C109.377 17.5541 108.922 15.5082 107.996 13.8295C107.086 12.1508 105.845 10.8743 104.271 10.0175Z" fill="white"/>
<path d="M134.61 27.1368C133.841 28.4658 132.844 29.48 131.602 30.1445C130.396 30.809 129.084 31.1412 127.685 31.1412C125.5 31.1412 123.664 30.3718 122.195 28.8505C120.761 27.2942 120.044 25.1084 120.044 22.2756C120.044 20.3696 120.394 18.7609 121.093 17.4669C121.792 16.1379 122.737 15.1237 123.908 14.4592C125.115 13.7948 126.426 13.4625 127.825 13.4625C129.224 13.4625 130.518 13.7948 131.742 14.4592C132.949 15.1237 133.928 16.1205 134.645 17.4669C135.379 18.7784 135.747 20.3696 135.747 22.2756C135.747 24.1817 135.362 25.8079 134.61 27.1368ZM134.75 10.4024C132.721 9.28329 130.448 8.74121 127.93 8.74121C125.412 8.74121 123.139 9.30077 121.111 10.4024C119.082 11.5215 117.473 13.0953 116.302 15.1762C115.13 17.2396 114.536 19.6177 114.536 22.2756C114.536 24.986 115.113 27.3642 116.249 29.4275C117.386 31.456 118.96 33.0472 120.971 34.2013C122.982 35.3204 125.22 35.8625 127.685 35.8625C130.203 35.8625 132.477 35.303 134.558 34.2013C136.656 33.0647 138.3 31.456 139.524 29.3926C140.73 27.3292 141.342 24.951 141.342 22.2931C141.342 19.6177 140.748 17.2571 139.576 15.1937C138.387 13.1128 136.778 11.5215 134.75 10.4024Z" fill="white"/>
<path d="M155.279 9.87782C153.967 10.6122 152.918 11.6439 152.131 12.9729V9.16088H146.693V35.4254H152.131V21.5937C152.131 18.9183 152.673 17.0472 153.758 15.9631C154.877 14.8789 156.485 14.3368 158.619 14.3368H160V8.74121C158.182 8.74121 156.608 9.12591 155.279 9.87782Z" fill="white"/>
</svg>

